<svg width="335" height="344" xmlns="http://www.w3.org/2000/svg">
 <g>
  <path d="m330.664877,228.791908c-12.122,43.007 -49.747,58.445 -92.259,52.941c-16.351,-2.116 -29.876,-9.655 -41.632,-20.853c-1.535,-1.463 -3.215,-2.773 -5.017,-4.315c-7.013,21.926 -0.403,40.541 30.712,87.017c-34.895,0 -69.291,0 -104.578,0c19.121,-25.208 36.383,-50.753 28.219,-85.044c-9.635,5.934 -17.93,11.985 -27.001,16.46c-34.971,17.255 -90.324,8.329 -111.167,-37.841c-17.043,-37.75 -5.798,-84.443 25.518,-105.194c20.065,-13.297 41.39,-16.25 65.057,-6.411c-3.444,-4.998 -6.486,-9.006 -9.104,-13.273c-28.357,-46.242 -4.661,-99.615 48.499,-109.87c24.449,-4.717 47.947,-2.63 70.814,7.354c44.759,19.542 50.379,75.393 27.748,105.681c-2.319,3.104 -4.645,6.205 -8.098,10.815c16.521,-7.409 32.264,-7.851 47.983,-4.115c26.762,6.361 43.778,22.565 54.111,48.744c10.046,25.446 0.536,56.699 0.195,57.904z" clip-rule="evenodd" fill-rule="evenodd"/>
 </g>
</svg>