<svg width="325" height="313" xmlns="http://www.w3.org/2000/svg">
 <g>
  <path fill="#EA4335" d="m323.704967,114.863024c-9.712,35.554 -30.536,64.376 -55.441,90.498c-34.404,36.084 -69.285,71.714 -103.981,107.52c-0.353,0.365 -0.971,0.474 0.016,0.018c-38.472,-39.119 -77.022,-77.382 -114.463,-116.703c-26.691,-28.032 -47.264,-60.57 -49.745,-100.082c-2.047,-32.598 10.676,-61.229 38.064,-80.666c24.892,-17.665 52.642,-18.292 79.936,-6.213c25.407,11.244 36.902,33.926 43.557,59.544c0.582,2.239 1.181,4.473 2.158,8.172c3.071,-10.215 4.962,-18.911 8.258,-27.037c12.465,-30.734 36.319,-47.865 68.591,-49.968c28.013,-1.827 56.415,13.551 74.153,44.642c15.047,26.376 9.318,68.735 8.897,70.275z" clip-rule="evenodd" fill-rule="evenodd"/>
 </g>
</svg>