<svg width="308" height="365" xmlns="http://www.w3.org/2000/svg">
<g>
  <path d="m153.197593,0.216995c34.446,23.316 118.694,94.258 151.071,186.615c10.962,39.732 -2.836,85.749 -37.404,101.76c-47.473,21.987 -89.612,-6.907 -92.371,-9.146c-4.873,17.264 -0.002,29.676 7.095,43.998c7.047,14.222 16.076,27.461 24.36,41.339c-34.387,0 -69.216,0 -105.276,0c19.775,-25.626 37.132,-51.712 29.162,-85.36c-11.857,5.198 -22.633,11.833 -34.332,14.708c-104.423,16.449 -100.286,-79.059 -91.17,-107.475c21.543,-67.152 121.659,-164.216 148.865,-186.439z" clip-rule="evenodd" fill-rule="evenodd"/>
 </g>
</svg>